<?xml version="1.0" encoding="UTF-8"?>
<svg version="1.1" xmlns="http://www.w3.org/2000/svg" width="500" height="500">
<path d="M0 0 C0.66 0.33 1.32 0.66 2 1 C1.70343506 1.61818604 1.40687012 2.23637207 1.10131836 2.87329102 C-1.81325065 8.95118555 -4.72178457 15.03193029 -7.62402344 21.11572266 C-8.44152711 22.82934729 -9.25964877 24.54267767 -10.07910156 26.25537109 C-14.11584913 34.70452571 -17.84206613 43.23395485 -21.33666992 51.92089844 C-21.65482666 52.69723633 -21.9729834 53.47357422 -22.30078125 54.2734375 C-22.72097534 55.31636963 -22.72097534 55.31636963 -23.1496582 56.38037109 C-24 58 -24 58 -26 59 C-25.44200077 52.78831044 -22.82620838 47.49824249 -20.3125 41.875 C-19.83643311 40.80000244 -19.36036621 39.72500488 -18.86987305 38.61743164 C-13.00355943 25.53811426 -6.52094518 12.76235985 0 0 Z " fill="#333333" transform="translate(288,166)"/>
<path d="M0 0 C0.66 0 1.32 0 2 0 C4.49400306 6.47234956 6.98375723 12.94632226 9.47070312 19.42138672 C10.31545165 21.61934499 11.16113641 23.81694368 12.0078125 26.01416016 C13.23169357 29.19076658 14.45208885 32.36869427 15.671875 35.546875 C16.04495789 36.5130072 16.41804077 37.4791394 16.8024292 38.47454834 C19.39938438 45.25463947 21.75437105 52.09587133 24 59 C23.01 59.495 23.01 59.495 22 60 C21.58226318 58.87730713 21.16452637 57.75461426 20.73413086 56.59790039 C19.15097889 52.34549559 17.56393041 48.09455313 15.97583008 43.84399414 C15.29511492 42.0204842 14.61539186 40.19660354 13.93676758 38.37231445 C10.16933034 28.24680401 6.35733315 18.16230152 2.08518982 8.23658752 C0.84751563 5.31644184 0 3.2078994 0 0 Z " fill="#333333" transform="translate(213,166)"/>
<path d="M0 0 C1.61882584 0.00666183 1.61882584 0.00666183 3.27035522 0.01345825 C5.10202744 0.01368484 5.10202744 0.01368484 6.97070312 0.01391602 C8.30805625 0.02413001 9.64540772 0.03456201 10.98275757 0.04519653 C12.34753208 0.04892623 13.71230926 0.05177341 15.0770874 0.05377197 C18.6709023 0.0614119 22.2645558 0.08106331 25.85830688 0.10317993 C29.52476823 0.12363072 33.19125564 0.13277204 36.85775757 0.14285278 C44.05314369 0.164309 51.24839677 0.19844911 58.44369507 0.24050903 C58.44369507 0.90050903 58.44369507 1.56050903 58.44369507 2.24050903 C37.65369507 2.24050903 16.86369507 2.24050903 -4.55630493 2.24050903 C-2.55630493 0.24050903 -2.55630493 0.24050903 0 0 Z " fill="#333333" transform="translate(154.55630493164063,254.75949096679688)"/>
<path d="M0 0 C4.74650096 1.47178324 9.20584062 3.37243378 13.6875 5.5 C14.42154053 5.84675781 15.15558105 6.19351563 15.91186523 6.55078125 C22.34366685 9.6225245 28.64830696 12.91666513 34.93945312 16.26513672 C42.55720003 20.31776549 50.26360644 24.17982221 58 28 C57.67 28.66 57.34 29.32 57 30 C43.99082028 23.9195598 31.12531361 17.6032189 18.375 11 C17.7434903 10.67353485 17.11198059 10.3470697 16.46133423 10.01071167 C3.94909836 3.53526848 3.94909836 3.53526848 0 1 C0 0.67 0 0.34 0 0 Z " fill="#333333" transform="translate(159,215)"/>
<path d="M0 0 C0 0.66 0 1.32 0 2 C-1.73695034 2.8073537 -3.47393796 3.61462717 -5.2109375 4.421875 C-6.34217041 4.94765137 -7.47340332 5.47342773 -8.63891602 6.01513672 C-11.14638171 7.18003248 -13.65475287 8.34294878 -16.16381836 9.50439453 C-22.0192594 12.21595878 -27.87180677 14.93214881 -33.70196533 17.69775391 C-35.50701789 18.5532733 -37.31427967 19.40412648 -39.12158203 20.25488281 C-41.38795407 21.32197837 -43.65076756 22.39666991 -45.90966797 23.47949219 C-47.44131592 24.19733887 -47.44131592 24.19733887 -49.00390625 24.9296875 C-49.89924072 25.35491699 -50.7945752 25.78014648 -51.71704102 26.21826172 C-54 27 -54 27 -57 26 C-46.26637621 20.47430223 -35.3677629 15.30948135 -24.4375 10.1875 C-23.73036865 9.85571747 -23.0232373 9.52393494 -22.29467773 9.18209839 C-20.23754178 8.21749593 -18.17951606 7.25482272 -16.12109375 6.29296875 C-15.50793808 6.00568909 -14.89478241 5.71840942 -14.26304626 5.42242432 C-2.62894426 0 -2.62894426 0 0 0 Z " fill="#333333" transform="translate(341,216)"/>
<path d="M0 0 C0.66 0.33 1.32 0.66 2 1 C-1.57771969 5.38270662 -5.21705987 9.18207223 -9.51953125 12.84375 C-12.807313 15.7017902 -15.99677193 18.65945091 -19.1875 21.625 C-20.07888672 22.45088623 -20.07888672 22.45088623 -20.98828125 23.29345703 C-24.39611347 26.46346688 -27.73052219 29.68742173 -31 33 C-31 30 -31 30 -29.29101562 27.93457031 C-28.50404297 27.15694336 -27.71707031 26.37931641 -26.90625 25.578125 C-26.04 24.71703125 -25.17375 23.8559375 -24.28125 22.96875 C-23.3634375 22.0715625 -22.445625 21.174375 -21.5 20.25 C-20.613125 19.36828125 -19.72625 18.4865625 -18.8125 17.578125 C-14.22800636 13.04756658 -9.57989328 8.64511409 -4.67382812 4.46386719 C-3.04318648 3.03776927 -1.51334005 1.54915191 0 0 Z " fill="#333333" transform="translate(306,200)"/>
<path d="M0 0 C0 0.33 0 0.66 0 1 C-3.72612438 1.86387807 -7.16225664 2.12170823 -10.98364258 2.11352539 C-12.16448929 2.11344986 -13.345336 2.11337433 -14.56196594 2.11329651 C-15.82671249 2.10813522 -17.09145905 2.10297394 -18.39453125 2.09765625 C-19.69702316 2.0962413 -20.99951508 2.09482635 -22.34147644 2.09336853 C-25.79216454 2.08956355 -29.24281008 2.07975064 -32.69348145 2.06866455 C-36.21947657 2.05840689 -39.74547861 2.0538616 -43.27148438 2.04882812 C-50.18100699 2.03812644 -57.09050145 2.02107443 -64 2 C-64 1.67 -64 1.34 -64 1 C-56.97489031 0.85573461 -49.94974053 0.71355443 -42.92456055 0.57275391 C-40.53978544 0.52471991 -38.15501953 0.47622654 -35.77026367 0.42724609 C-32.32212668 0.35650768 -28.87395883 0.28747812 -25.42578125 0.21875 C-24.37731522 0.19687622 -23.32884918 0.17500244 -22.24861145 0.15246582 C-14.83162139 0.00689465 -7.41831985 -0.02370266 0 0 Z " fill="#333333" transform="translate(350,255)"/>
<path d="M0 0 C6.45619535 5.28489721 12.3159864 11.12984093 18.20922852 17.02392578 C19.9524616 18.76494258 21.7035822 20.49776937 23.45507812 22.23046875 C24.56298745 23.33544897 25.67042698 24.44090048 26.77734375 25.546875 C27.30222885 26.06457458 27.82711395 26.58227417 28.36790466 27.11566162 C32 30.77113848 32 30.77113848 32 33 C28.71695797 31.90565266 28.13937051 31.2416645 26.02734375 28.6484375 C23.00891778 25.08922013 19.82637229 21.75026006 16.50390625 18.4765625 C16.02166595 17.99999207 15.53942566 17.52342163 15.04257202 17.03240967 C13.03746314 15.05433363 11.02816775 13.08060362 9.01489258 11.11083984 C7.52775618 9.65371557 6.04674995 8.19058243 4.56640625 6.7265625 C3.68927979 5.86627441 2.81215332 5.00598633 1.90844727 4.11962891 C0 2 0 2 0 0 Z " fill="#333333" transform="translate(194,199)"/>
<path d="M0 0 C0.33 0 0.66 0 1 0 C1 14.85 1 29.7 1 45 C0.67 45 0.34 45 0 45 C-0.9357634 39.58391486 -1.06540515 34.48865521 -0.87890625 29.00390625 C-0.85529526 28.17036118 -0.83168427 27.3368161 -0.80735779 26.47801208 C-0.73133732 23.8393076 -0.6470516 21.2009435 -0.5625 18.5625 C-0.50921746 16.76368803 -0.45647759 14.9648599 -0.40429688 13.16601562 C-0.27580661 8.77713192 -0.13990772 4.38853398 0 0 Z " fill="#333333" transform="translate(250,178)"/>
<path d="M0 0 C4.79771181 1.59923727 6.54335453 5.77076423 9.25 9.875 C9.8171875 10.70386719 10.384375 11.53273437 10.96875 12.38671875 C11.49984375 13.18464844 12.0309375 13.98257813 12.578125 14.8046875 C13.06700195 15.53671387 13.55587891 16.26874023 14.05957031 17.02294922 C15 19 15 19 14 22 C12.33991821 19.62845458 10.68034117 17.25658062 9.0234375 14.8828125 C7.68425802 12.97486954 6.33540694 11.0736753 4.9765625 9.1796875 C4.34492188 8.29539063 3.71328125 7.41109375 3.0625 6.5 C2.47597656 5.6853125 1.88945312 4.870625 1.28515625 4.03125 C0 2 0 2 0 0 Z " fill="#333333" transform="translate(216,206)"/>
<path d="M0 0 C4.37398687 2.09581805 8.25416469 4.76786526 12.25 7.5 C12.99507812 7.99886719 13.74015625 8.49773437 14.5078125 9.01171875 C15.21164063 9.49253906 15.91546875 9.97335938 16.640625 10.46875 C17.28547852 10.90638672 17.93033203 11.34402344 18.59472656 11.79492188 C19.0584668 12.19259766 19.52220703 12.59027344 20 13 C20 13.66 20 14.32 20 15 C15.66208857 13.5273511 12.48927693 11.28996816 8.875 8.5 C5.95001012 6.25337435 3.06902312 4.04601541 0 2 C0 1.34 0 0.68 0 0 Z " fill="#333333" transform="translate(201,222)"/>
<path d="M0 0 C0.66 0 1.32 0 2 0 C1.28621973 8.13709505 -0.32773882 16.01731928 -2 24 C-2.66 24 -3.32 24 -4 24 C-2.80039297 15.97284232 -1.50253855 7.9762419 0 0 Z " fill="#333333" transform="translate(260,199)"/>
<path d="M0 0 C0.66 0 1.32 0 2 0 C2.67635064 3.20636973 3.33932448 6.41536689 4 9.625 C4.19078125 10.52863281 4.3815625 11.43226563 4.578125 12.36328125 C5.52210398 16.98203556 6.25214768 21.25647172 6 26 C4.09248828 23.13873242 3.56894263 21.70524108 2.9296875 18.4375 C2.66865234 17.11878906 2.66865234 17.11878906 2.40234375 15.7734375 C2.22832031 14.85820312 2.05429688 13.94296875 1.875 13 C1.60236328 11.62714844 1.60236328 11.62714844 1.32421875 10.2265625 C0 3.43620771 0 3.43620771 0 0 Z " fill="#333333" transform="translate(238,198)"/>
<path d="M0 0 C0 0.99 0 1.98 0 3 C-1.56054688 4.44213867 -1.56054688 4.44213867 -3.71875 5.91796875 C-4.48574219 6.44970703 -5.25273437 6.98144531 -6.04296875 7.52929688 C-6.85378906 8.07650391 -7.66460937 8.62371094 -8.5 9.1875 C-9.31082031 9.74630859 -10.12164062 10.30511719 -10.95703125 10.88085938 C-12.96534236 12.26304996 -14.97964479 13.63550165 -17 15 C-17.66 14.67 -18.32 14.34 -19 14 C-12.71531225 9.2632649 -6.43402649 4.53306412 0 0 Z " fill="#333333" transform="translate(298,223)"/>
<path d="M0 0 C0.66 0.33 1.32 0.66 2 1 C0.04915911 3.98413657 -1.91190555 6.96141288 -3.875 9.9375 C-4.43058594 10.78763672 -4.98617188 11.63777344 -5.55859375 12.51367188 C-6.09355469 13.32255859 -6.62851562 14.13144531 -7.1796875 14.96484375 C-7.67194824 15.7137085 -8.16420898 16.46257324 -8.67138672 17.23413086 C-10 19 -10 19 -12 20 C-10.37885498 15.20178341 -7.70723241 11.3327141 -4.875 7.1875 C-4.40707031 6.49462891 -3.93914062 5.80175781 -3.45703125 5.08789062 C-2.30887563 3.38908895 -1.15500633 1.69415136 0 0 Z " fill="#333333" transform="translate(281,208)"/>
<path d="M0 0 C8.31616812 0.58359075 16.01459326 2.73799414 24 5 C24 5.33 24 5.66 24 6 C15.68383188 5.41640925 7.98540674 3.26200586 0 1 C0 0.67 0 0.34 0 0 Z " fill="#333333" transform="translate(191,244)"/>
<path d="M0 0 C0.33 0.66 0.66 1.32 1 2 C-1.74755487 2.69888677 -4.49731197 3.3843988 -7.25 4.0625 C-8.02730469 4.26166016 -8.80460937 4.46082031 -9.60546875 4.66601562 C-10.35957031 4.84970703 -11.11367188 5.03339844 -11.890625 5.22265625 C-12.58188477 5.39547119 -13.27314453 5.56828613 -13.98535156 5.74633789 C-16.25070809 6.03156637 -17.8368312 5.68076195 -20 5 C-17.60468067 4.35220924 -15.20878252 3.70670991 -12.8125 3.0625 C-12.13896484 2.88009766 -11.46542969 2.69769531 -10.77148438 2.50976562 C-7.19851542 1.5511642 -3.63843262 0.67116718 0 0 Z " fill="#333333" transform="translate(307,244)"/>
<path d="M0 0 C0.66 0.33 1.32 0.66 2 1 C0.02 1.99 0.02 1.99 -2 3 C-2 2.34 -2 1.68 -2 1 C-1.34 0.67 -0.68 0.34 0 0 Z " fill="#333333" transform="translate(302,220)"/>
<path d="M0 0 C1.485 0.99 1.485 0.99 3 2 C3 2.66 3 3.32 3 4 C2.34 4 1.68 4 1 4 C0.67 2.68 0.34 1.36 0 0 Z " fill="#333333" transform="translate(213,201)"/>
<path d="M0 0 C0.66 0 1.32 0 2 0 C1.67 1.32 1.34 2.64 1 4 C0.67 2.68 0.34 1.36 0 0 Z " fill="#333333" transform="translate(237,192)"/>
<path d="M0 0 C0.99 0.33 1.98 0.66 3 1 C1.68 1.33 0.36 1.66 -1 2 C-0.67 1.34 -0.34 0.68 0 0 Z " fill="#333333" transform="translate(311,243)"/>
<path d="M0 0 C1.32 0.33 2.64 0.66 4 1 C3.01 1.33 2.02 1.66 1 2 C0.67 1.34 0.34 0.68 0 0 Z " fill="#333333" transform="translate(185,242)"/>
<path d="M0 0 C0.66 0 1.32 0 2 0 C1.67 0.99 1.34 1.98 1 3 C0.34 2.67 -0.32 2.34 -1 2 C-0.67 1.34 -0.34 0.68 0 0 Z " fill="#333333" transform="translate(284,203)"/>
<path d="M0 0 C0.33 0.99 0.66 1.98 1 3 C0.01 3.495 0.01 3.495 -1 4 C-0.67 2.68 -0.34 1.36 0 0 Z " fill="#333333" transform="translate(262,193)"/>
<path d="M0 0 C0.99 0.33 1.98 0.66 3 1 C2.67 1.66 2.34 2.32 2 3 C1.34 2.67 0.68 2.34 0 2 C0 1.34 0 0.68 0 0 Z " fill="#333333" transform="translate(195,218)"/>
<path d="" fill="#333333" transform="translate(0,0)"/>
</svg>
